<?xml version="1.0" encoding="UTF-8"?><svg id="Layer_1" xmlns="http://www.w3.org/2000/svg" viewBox="0 0 73 67"><defs><style>.cls-1{fill:#fefefe;}.cls-2{fill:#0d1348;}.cls-3{fill:#0b1247;}.cls-4{fill:#0c1348;}.cls-5{fill:#0e1549;}</style></defs><path class="cls-1" d="M36.57,66.96c-11.65,0-23.29-.03-34.94,.04C.21,67.01,0,66.66,0,65.33,.05,44.12,.05,22.91,0,1.69,0,.41,.14,0,1.61,0,24.9,.06,48.19,.06,71.48,0c1.29,0,1.5,.35,1.5,1.54-.04,21.29-.05,42.59,.02,63.88,0,1.55-.54,1.56-1.74,1.55-11.56-.04-23.13-.03-34.69-.03Z"/><path class="cls-3" d="M21.75,7.62c-8.09,1.37-11.59,8.41-17.52,12.93,0-2.79-.03-5.24,.03-7.69,0-.45,.25-.98,.56-1.32C10.46,5.26,16.82,.47,25.93,1.06c1.55,.1,1.95,.49,1.9,1.98-.1,3.3,.04,6.61-.07,9.91-.04,1.35,.44,2.07,1.57,2.73,5.9,3.46,11.72,7.07,17.65,10.48,1.61,.93,1.94,1.83,1.37,3.56-.82,2.5-1.32,5.1-1.96,7.66-1.78,7.13-6.23,11.19-13.56,10.83-5.29-.26-8.88,1.5-12.1,5.37-2.36,2.85-5.26,5.24-7.81,7.95-1.05,1.12-1.68,1.08-2.76,.02-3.02-2.97-3.07-2.92-.15-5.85,4.08-4.09,8.18-8.16,12.23-12.29,.87-.89,1.76-1.32,3.03-1.28,2.72,.08,5.45,.07,8.18,0,3.29-.08,5.61-1.86,6.62-4.97q2.16-6.63-3.83-10.21c-4.32-2.58-8.59-5.24-12.94-7.76-1.15-.67-1.63-1.39-1.58-2.73,.1-2.88,.03-5.77,.03-8.85Z"/><path class="cls-5" d="M63.74,36.03h-1.73c-4.63,0-4.59,0-4.39-4.64,.05-1.11,.27-1.62,1.51-1.59,3.12,.07,6.25,.08,9.37,0,1.22-.03,1.47,.41,1.51,1.55,.18,4.69,.22,4.68-4.54,4.68h-1.73Z"/><path class="cls-4" d="M63.91,14.65c-.29,.31-.6,.65-.93,.97-2.04,2.04-4.1,4.05-6.11,6.13-.7,.73-1.12,1.06-2.08,.17-3.57-3.33-3.62-3.28-.19-6.71,.7-.7,1.37-1.43,2.12-2.07,1.04-.88,1.88-2.91,3.05-2.49,1.48,.54,2.53,2.26,3.75,3.47,.12,.11,.19,.27,.38,.53Z"/><path class="cls-2" d="M64.11,51.58c-1.34,1.21-2.59,2.54-4.05,3.57-1.05,.74-1.48-.64-2.05-1.16-1.93-1.8-3.73-3.74-5.65-5.56-.78-.74-.73-1.16,0-1.95,3.25-3.54,3.22-3.57,6.64-.17,1.29,1.28,2.57,2.56,3.85,3.85,.35,.35,.66,.73,1.26,1.42Z"/></svg>