<?xml version="1.0" encoding="UTF-8"?><svg id="Layer_2" xmlns="http://www.w3.org/2000/svg" viewBox="0 0 245.53 31.65"><defs><style>.cls-1{letter-spacing:-.01em;}.cls-2{fill:#0d1348;}.cls-3{fill:#0b1247;}.cls-4{fill:#0c1348;}.cls-5{fill:#0e1549;}.cls-6{letter-spacing:0em;}.cls-7{fill:#d03737;font-family:BarlowCondensed-Bold, 'Barlow Condensed';font-size:28.93px;}.cls-8{letter-spacing:0em;}.cls-9{letter-spacing:0em;}.cls-10{letter-spacing:-.02em;}.cls-11{letter-spacing:0em;}</style></defs><g id="Layer_1-2"><text class="cls-7" transform="translate(34.05 24.7)"><tspan x="0" y="0">FL</tspan><tspan class="cls-9" x="24.5" y="0">U</tspan><tspan x="38.19" y="0">FF DOG </tspan><tspan class="cls-10" x="115.09" y="0">A</tspan><tspan class="cls-1" x="128.48" y="0">C</tspan><tspan class="cls-11" x="141.61" y="0">A</tspan><tspan class="cls-8" x="155.56" y="0">D</tspan><tspan class="cls-6" x="169.24" y="0">EMY</tspan></text><path class="cls-3" d="M8,3.02C4.31,3.64,2.71,6.85,0,8.92,0,7.64-.01,6.52,.02,5.41c0-.21,.11-.45,.26-.6C2.85,1.94,5.75-.25,9.91,.02c.71,.05,.89,.22,.87,.9-.05,1.51,.02,3.02-.03,4.52-.02,.62,.2,.94,.72,1.25,2.69,1.58,5.35,3.23,8.05,4.78,.73,.42,.89,.84,.63,1.62-.37,1.14-.6,2.33-.89,3.5-.81,3.25-2.84,5.11-6.19,4.94-2.41-.12-4.05,.68-5.52,2.45-1.08,1.3-2.4,2.39-3.56,3.63-.48,.51-.77,.49-1.26,0-1.38-1.36-1.4-1.33-.07-2.67,1.86-1.87,3.73-3.72,5.58-5.61,.4-.41,.8-.6,1.38-.58,1.24,.04,2.49,.03,3.73,0,1.5-.04,2.56-.85,3.02-2.27,.66-2.02,.07-3.57-1.75-4.66-1.97-1.18-3.92-2.39-5.9-3.54-.52-.31-.74-.63-.72-1.25,.05-1.31,.01-2.63,.01-4.04h0Z"/><path class="cls-5" d="M27.16,15.98h-.79c-2.11,0-2.09,0-2-2.12,.02-.51,.12-.74,.69-.73,1.42,.03,2.85,.04,4.28,0,.56-.01,.67,.19,.69,.71,.08,2.14,.1,2.14-2.07,2.14h-.79Z"/><path class="cls-4" d="M27.24,6.22c-.13,.14-.27,.3-.42,.44-.93,.93-1.87,1.85-2.79,2.8-.32,.33-.51,.48-.95,.08-1.63-1.52-1.65-1.5-.09-3.06,.32-.32,.63-.65,.97-.94,.47-.4,.86-1.33,1.39-1.14,.68,.25,1.15,1.03,1.71,1.58,.05,.05,.09,.12,.17,.24h0Z"/><path class="cls-2" d="M27.33,23.08c-.61,.55-1.18,1.16-1.85,1.63-.48,.34-.68-.29-.94-.53-.88-.82-1.7-1.71-2.58-2.54-.36-.34-.33-.53,0-.89,1.48-1.62,1.47-1.63,3.03-.08,.59,.58,1.17,1.17,1.76,1.76,.16,.16,.3,.33,.57,.65Z"/></g></svg>