<?xml version="1.0"?>
<svg xmlns="http://www.w3.org/2000/svg" viewBox="0 0 64 64" width="512" height="512"><g id="Outline"><g><circle cx="7" cy="7" r="1"/><circle cx="11" cy="7" r="1"/><circle cx="15" cy="7" r="1"/><path d="M24,6a1,1,0,0,0,0,2h9a1,1,0,0,0,0-2Z"/><path d="M39,6a1,1,0,0,0,0,2H54a1,1,0,0,0,0-2Z"/><path d="M61,36a1,1,0,0,0-1,1V60H4V24a1,1,0,0,0-2,0V61a1,1,0,0,0,1,1H61a1,1,0,0,0,1-1V37A1,1,0,0,0,61,36Z"/><path d="M61,2H3A1,1,0,0,0,2,3V20a1,1,0,0,0,2,0V12H57a1,1,0,0,0,0-2H20V4H60V33a1,1,0,0,0,2,0V3A1,1,0,0,0,61,2ZM18,10H4V4H18Z"/><path d="M57,16a1,1,0,0,0-1-1H8a1,1,0,0,0-1,1V34a1,1,0,0,0,1,1H56a1,1,0,0,0,1-1ZM47,18a1,1,0,1,1-1-1A1,1,0,0,1,47,18ZM14,30a1,1,0,0,1-1-1,6.19,6.19,0,0,1,1-2.92A6.19,6.19,0,0,1,15,29,1,1,0,0,1,14,30Zm4.62,3L24,22.24,29.38,33Zm13,0-2.5-5L31,24.24,35.38,33ZM40,30a1,1,0,0,1-1-1,6.19,6.19,0,0,1,1-2.92A6.19,6.19,0,0,1,41,29,1,1,0,0,1,40,30Zm8,0a1,1,0,0,1-1-1,6.19,6.19,0,0,1,1-2.92A6.19,6.19,0,0,1,49,29,1,1,0,0,1,48,30Zm7,3H49V31.82A3,3,0,0,0,51,29c0-1.16-.94-5-3-5s-3,3.84-3,5a3,3,0,0,0,2,2.82V33H41V31.82A3,3,0,0,0,43,29c0-1.16-.94-5-3-5s-3,3.84-3,5a3,3,0,0,0,2,2.82V33H37.62L31.89,21.55a1,1,0,0,0-1.78,0L28,25.76l-3.11-6.21a1,1,0,0,0-1.78,0L16.38,33H15V31.82A3,3,0,0,0,17,29c0-1.16-.94-5-3-5s-3,3.84-3,5a3,3,0,0,0,2,2.82V33H9V17H43.18a3,3,0,1,0,5.64,0H55Z"/><circle cx="41" cy="20" r="1"/><circle cx="44" cy="23" r="1"/><circle cx="50" cy="22" r="1"/><path d="M30,38H16a1,1,0,0,0,0,2H30a1,1,0,0,0,0-2Z"/><path d="M30,42H9a1,1,0,0,0,0,2H30a1,1,0,0,0,0-2Z"/><path d="M30,46H9a1,1,0,0,0,0,2H30a1,1,0,0,0,0-2Z"/><path d="M30,50H9a1,1,0,0,0,0,2H30a1,1,0,0,0,0-2Z"/><path d="M30,54H9a1,1,0,0,0,0,2H30a1,1,0,0,0,0-2Z"/><path d="M34,48h8a1,1,0,0,0,1-1V39a1,1,0,0,0-1-1H34a1,1,0,0,0-1,1v8A1,1,0,0,0,34,48Zm7-8v6H35V44h3a1,1,0,0,0,0-2H35V40Z"/><path d="M56,38H48a1,1,0,0,0,0,2h8a1,1,0,0,0,0-2Z"/><path d="M56,42H46a1,1,0,0,0,0,2H56a1,1,0,0,0,0-2Z"/><path d="M56,46H46a1,1,0,0,0,0,2H56a1,1,0,0,0,0-2Z"/><path d="M56,50H34a1,1,0,0,0,0,2H56a1,1,0,0,0,0-2Z"/><path d="M56,54H34a1,1,0,0,0,0,2H56a1,1,0,0,0,0-2Z"/><path d="M15.42,19.18a3.07,3.07,0,0,0-3.54.53,1,1,0,0,0,1.41,1.41,1,1,0,0,1,1.42,0,1,1,0,0,0,.7.29,1,1,0,0,0,.71-.29,1,1,0,0,1,1.42,0,1,1,0,0,0,.7.29,1,1,0,0,0,.71-.29,1,1,0,0,0,0-1.41A3,3,0,0,0,15.42,19.18Z"/></g></g></svg>
